# xmcd CD database file
#
# Track frame offsets:
#	150
#	21810
#	48259
#	77726
#	107034
#	119411
#	137920
#	159763
#	178669
#	208550
#	234968
#
# Disc length: 3422 seconds
#
# Revision: 0
# Processed by: cddbd v1.5.2PL0 Copyright (c) Steve Scherf et al.
# Submitted via: CDex 1.70beta2
#
DISCID=860d5c0b
DTITLE=Jochen Rueckert - Somewhere Meeting Nobody
DYEAR=2010
DGENRE=Jazz
TTITLE0=The Itch
TTITLE1=Buttons
TTITLE2=Dan Smith Will Teach You Guitar
TTITLE3=Bridge and Front
TTITLE4=Delete Forever
TTITLE5=Pitot
TTITLE6=Somewhere Meeting Nobody
TTITLE7=Vodka Coke
TTITLE8=To Have and to Hold
TTITLE9=Way
TTITLE10=The Sorcerer
EXTD=YEAR: 2010
EXTT0=
EXTT1=
EXTT2=
EXTT3=
EXTT4=
EXTT5=
EXTT6=
EXTT7=
EXTT8=
EXTT9=
EXTT10=
PLAYORDER=
